<svg width="40" height="40" viewBox="0 0 40 40" fill="none" xmlns="http://www.w3.org/2000/svg">
<path d="M29.075 14.3687C28.1441 14.0322 27.1611 13.8625 26.1712 13.8675C22.975 13.8675 20.7162 15.4825 20.7025 17.7937C20.6763 19.4925 22.3037 20.45 23.5337 21.0225C24.7975 21.6088 25.22 21.9738 25.2137 22.4938C25.2075 23.295 24.2038 23.6525 23.28 23.6525C21.9963 23.6525 21.3 23.4775 20.2262 23.0275L19.8275 22.8387L19.3725 25.5087C20.1537 25.8275 21.5538 26.1075 22.9988 26.1337C26.4037 26.1337 28.6238 24.5325 28.6488 22.0637C28.675 20.71 27.8037 19.6825 25.9475 18.835C24.8275 18.2887 24.1263 17.9162 24.1263 17.3562C24.1263 16.8612 24.725 16.3412 25.975 16.3412C26.8045 16.3205 27.6293 16.4733 28.3962 16.79L28.7025 16.9262L29.1512 14.355L29.075 14.3687ZM37.3838 14.0887H34.8838C34.1025 14.0887 33.5225 14.2975 33.1775 15.0725L28.3725 25.9637H31.7712L32.4562 24.18L36.6025 24.1862C36.7062 24.6025 36.9988 25.9625 36.9988 25.9625H40L37.3838 14.0887ZM16.1 13.9912H19.3363L17.3113 25.8712H14.075L16.1 13.985V13.9912ZM7.87125 20.5337L8.2025 22.1875L11.3725 14.0887H14.8038L9.69875 25.9437H6.2825L3.4825 15.905C3.46105 15.8216 3.42283 15.7435 3.37018 15.6753C3.31752 15.6072 3.25154 15.5505 3.17625 15.5087C2.17048 14.9856 1.10354 14.5897 0 14.33L0.03875 14.0812H5.26C5.96375 14.1075 6.53625 14.33 6.73125 15.085L7.87125 20.54V20.5337ZM33.3787 21.7512L34.675 18.425C34.655 18.4562 34.9412 17.7412 35.1038 17.2912L35.325 18.3125L36.075 21.7437H33.3787V21.7512Z" fill="white"/>
</svg>
