<svg width="40" height="28" viewBox="0 0 40 28" fill="none" xmlns="http://www.w3.org/2000/svg">
<g clip-path="url(#clip0_141_420)">
<path d="M37.3333 27.3333H2.66667C1.95942 27.3333 1.28115 27.0524 0.781049 26.5523C0.280952 26.0522 0 25.3739 0 24.6667L0 3.33333C0 2.62609 0.280952 1.94781 0.781049 1.44771C1.28115 0.947616 1.95942 0.666664 2.66667 0.666664L37.3333 0.666664C38.0406 0.666664 38.7189 0.947616 39.219 1.44771C39.7191 1.94781 40 2.62609 40 3.33333V24.6667C40 25.3739 39.7191 26.0522 39.219 26.5523C38.7189 27.0524 38.0406 27.3333 37.3333 27.3333ZM31.6489 22.5767H31.6333C31.4813 22.5765 31.3309 22.6079 31.1917 22.669C31.0524 22.73 30.9274 22.8192 30.8244 22.9311L30.8233 22.9322C30.6044 23.172 30.4831 23.485 30.4833 23.8097C30.4835 24.1343 30.6052 24.4472 30.8244 24.6867L30.8233 24.6856C31.0256 24.9044 31.3133 25.0411 31.6333 25.0411H31.6489C31.7921 25.0509 31.9344 25.0245 32.0647 24.9643C32.195 24.9041 32.308 24.8121 32.3933 24.6967L32.3944 24.6944V24.99H32.8978V21.6911H32.3944V22.9244C32.3124 22.8161 32.2065 22.7282 32.0848 22.6677C31.9632 22.6072 31.8292 22.5756 31.6933 22.5756L31.6467 22.5767H31.6489ZM26.9267 22.5767H26.9011C26.58 22.5767 26.29 22.71 26.0844 22.9244C25.8652 23.1676 25.7439 23.4834 25.7441 23.8108C25.7444 24.1381 25.866 24.4538 26.0856 24.6967L26.0844 24.6956C26.2911 24.91 26.5811 25.0433 26.9022 25.0433H26.9289L26.9778 25.0444C27.11 25.0446 27.2403 25.0132 27.358 24.9529C27.4757 24.8926 27.5773 24.8052 27.6544 24.6978L27.6567 24.6956V24.9911H28.1789V22.6467H27.6578V22.9244C27.5736 22.8111 27.463 22.7202 27.3355 22.6595C27.2081 22.5989 27.0677 22.5704 26.9267 22.5767ZM24.6511 22.5767L24.6044 22.5756C24.2773 22.5756 23.9636 22.7055 23.7323 22.9368C23.5011 23.1681 23.3711 23.4818 23.3711 23.8089C23.3711 24.136 23.5011 24.4497 23.7323 24.681C23.9636 24.9123 24.2773 25.0422 24.6044 25.0422L24.6533 25.0411H24.6511L24.6967 25.0422C24.9967 25.0422 25.2711 24.9378 25.4878 24.7622L25.4856 24.7644L25.2422 24.3478C25.0815 24.4749 24.8847 24.548 24.68 24.5567H24.6778C24.5757 24.5632 24.4733 24.5479 24.3776 24.5119C24.2818 24.4759 24.1947 24.42 24.1222 24.3478C23.9931 24.1981 23.9222 24.0069 23.9224 23.8092C23.9226 23.6116 23.9939 23.4205 24.1233 23.2711L24.1222 23.2722C24.1856 23.2061 24.2616 23.1535 24.3458 23.1176C24.4301 23.0817 24.5207 23.0632 24.6122 23.0633H24.6356H24.6344C24.8554 23.0638 25.07 23.1377 25.2444 23.2733L25.2422 23.2711L25.4856 22.8544C25.2559 22.673 24.9716 22.5746 24.6789 22.5756L24.6511 22.5767ZM20.1178 22.5767H20.09C19.9391 22.5764 19.7897 22.6071 19.6511 22.6669C19.5126 22.7268 19.3878 22.8144 19.2844 22.9244C19.1736 23.044 19.0874 23.1843 19.0308 23.3372C18.9742 23.4901 18.9482 23.6526 18.9544 23.8156V23.8133L18.9533 23.8644C18.9533 24.1922 19.0833 24.49 19.2933 24.7078C19.5044 24.9178 19.7956 25.0467 20.1167 25.0467L20.1544 25.0456H20.1522L20.1978 25.0467C20.5456 25.0467 20.8633 24.9211 21.11 24.7133L21.1078 24.7156L20.8644 24.3344C20.678 24.4997 20.4381 24.5921 20.1889 24.5944C20.0198 24.6091 19.8505 24.558 19.718 24.4519C19.5856 24.3457 19.4992 24.1927 19.4767 24.0244V24.0211H21.23V23.8133C21.2456 23.4853 21.1328 23.1641 20.9156 22.9178L20.9167 22.9189C20.819 22.8107 20.6997 22.7242 20.5665 22.665C20.4333 22.6059 20.2891 22.5754 20.1433 22.5756H20.1189L20.1178 22.5767ZM16.6989 22.6467V23.1156H17.1844V24.1756C17.1844 24.7511 17.4589 25.0433 18 25.0433H18.0189C18.2433 25.0433 18.4511 24.9767 18.6256 24.8633L18.6211 24.8656L18.4811 24.4311C18.3433 24.5089 18.1882 24.5509 18.03 24.5533C17.81 24.5533 17.6978 24.4256 17.6978 24.1722V23.1167H18.5311V22.6478H17.6978V21.9367H17.1767V22.6478L16.6989 22.6467ZM14.5133 24.3467L14.2878 24.7467C14.5622 24.9322 14.9 25.0422 15.2633 25.0422H15.2967H15.2944L15.3678 25.0444C15.6333 25.0444 15.8811 24.9656 16.0889 24.83L16.0833 24.8333C16.1716 24.7733 16.2438 24.6926 16.2937 24.5983C16.3437 24.504 16.3699 24.3989 16.37 24.2922V24.2767C16.37 23.8856 16.0956 23.6556 15.5544 23.5833L15.3122 23.5478C15.0456 23.5022 14.9122 23.4211 14.9122 23.3056C14.9122 23.1322 15.0578 23.0456 15.3467 23.0456H15.3522C15.6244 23.0456 15.88 23.1167 16.1011 23.2411L16.0933 23.2367L16.3022 22.82C16.0128 22.6479 15.6798 22.5634 15.3433 22.5767H15.3467L15.2867 22.5756C15.0515 22.5752 14.8224 22.6495 14.6322 22.7878L14.6356 22.7856C14.5544 22.8487 14.4888 22.9297 14.4438 23.0221C14.3987 23.1145 14.3754 23.216 14.3756 23.3189V23.3422V23.3411C14.3756 23.7211 14.65 23.9489 15.1911 24.0178L15.4167 24.0533C15.6933 24.1 15.8333 24.1811 15.8333 24.2967C15.8333 24.4922 15.6556 24.5922 15.2944 24.5922H15.2844C15.0065 24.5928 14.7354 24.5066 14.5089 24.3456L14.5133 24.3489V24.3467ZM12.5333 22.5756H12.5056C12.3548 22.5753 12.2056 22.606 12.0672 22.6659C11.9288 22.7257 11.8042 22.8133 11.7011 22.9233C11.4872 23.1692 11.3695 23.4843 11.3697 23.8102C11.3699 24.1361 11.488 24.451 11.7022 24.6967L11.7011 24.6956C11.8044 24.8056 11.9292 24.8932 12.0678 24.9531C12.2064 25.0129 12.3557 25.0436 12.5067 25.0433H12.5356C12.6787 25.0509 12.8205 25.0234 12.9506 24.9632C13.0808 24.903 13.1942 24.8118 13.2811 24.6978L13.2822 24.6956V24.9911H13.7856V22.6467H13.2822V22.9244C13.194 22.8157 13.0825 22.728 12.956 22.6678C12.8295 22.6076 12.6912 22.5765 12.5511 22.5767L12.5333 22.5756ZM28.8533 22.6456V24.99H29.3567V23.6711C29.3567 23.2689 29.5256 23.0644 29.86 23.0644H29.8711C29.9811 23.0644 30.0856 23.09 30.1778 23.1356L30.1733 23.1333L30.3289 22.6467C30.2248 22.6 30.1119 22.5762 29.9978 22.5767L29.9622 22.5778H29.9644H29.9456C29.8259 22.5777 29.7085 22.6096 29.6053 22.6702C29.5022 22.7307 29.4171 22.8177 29.3589 22.9222L29.3567 22.9256V22.6478L28.8533 22.6456ZM21.7533 22.6456V24.99H22.2744V23.6711C22.2744 23.2689 22.4433 23.0644 22.7778 23.0644H22.7889C22.8989 23.0644 23.0033 23.09 23.0956 23.1356L23.0911 23.1333L23.2478 22.6467C23.139 22.6 23.0217 22.5762 22.9033 22.5767H22.8822H22.8633C22.7439 22.5766 22.6265 22.6084 22.5236 22.669C22.4206 22.7296 22.3357 22.8166 22.2778 22.9211L22.2756 22.9244V22.6467L21.7533 22.6456ZM9.87778 23.0622C10.2233 23.0622 10.3989 23.2722 10.3989 23.6844V24.9867H10.92V23.5111L10.9211 23.4744C10.9213 23.2399 10.8305 23.0145 10.6678 22.8456C10.4843 22.6738 10.2424 22.5785 9.99111 22.5789H9.98111C9.82094 22.5686 9.66095 22.6015 9.51787 22.6742C9.37478 22.7469 9.25387 22.8568 9.16778 22.9922L9.16556 22.9956C9.08699 22.8598 8.97194 22.7488 8.83348 22.6752C8.69502 22.6015 8.53869 22.5682 8.38222 22.5789H8.38445H8.37444C8.24394 22.5789 8.11536 22.6104 7.99953 22.6705C7.8837 22.7306 7.78402 22.8177 7.70889 22.9244L7.70667 22.9267V22.6489H7.18778V24.9933H7.70889V23.6889C7.70889 23.2744 7.90222 23.0667 8.28222 23.0667C8.62778 23.0667 8.80333 23.2767 8.80333 23.6889V24.9911H9.30667V23.6889C9.30667 23.2733 9.5 23.0667 9.87889 23.0667L9.87778 23.0622ZM25.4511 2.88889H25.4144C23.6769 2.88609 21.9789 3.4073 20.5422 4.38444L20.5722 4.36555C22.0228 5.5415 23.0898 7.12336 23.6367 8.90889L23.6544 8.97555C23.9167 9.80333 24.0667 10.7544 24.0667 11.7422C24.0667 12.7189 23.9189 13.66 23.6456 14.5467L23.6633 14.48C23.1299 16.2831 22.0575 17.8798 20.59 19.0556L20.5722 19.07C22.0129 20.0364 23.7096 20.5503 25.4444 20.5456C26.6889 20.5456 27.8722 20.2867 28.9444 19.82L28.8878 19.8422C30.9894 18.9619 32.6659 17.2981 33.5622 15.2033L33.5833 15.1467C34.0278 14.1356 34.2867 12.9567 34.2867 11.7178C34.2867 10.4789 34.0278 9.3 33.5611 8.23333L33.5833 8.28889C32.702 6.1854 31.0344 4.50903 28.9356 3.61666L28.8789 3.59555C27.8007 3.12785 26.6374 2.88839 25.4622 2.89222H25.45L25.4511 2.88889ZM14.5489 2.88889H14.5367C13.3416 2.88744 12.1592 3.13413 11.0644 3.61333L11.12 3.59111C9.0133 4.46732 7.33231 6.13196 6.43556 8.23L6.41444 8.28666C5.97 9.29777 5.71111 10.4767 5.71111 11.7156C5.71111 12.9544 5.97 14.1333 6.43667 15.2L6.41444 15.1444C7.29479 17.246 8.95851 18.9225 11.0533 19.8189L11.11 19.84C12.1256 20.2844 13.31 20.5433 14.5533 20.5433C16.3006 20.5463 18.0085 20.0254 19.4567 19.0478L19.4256 19.0678C17.9671 17.8972 16.896 16.3137 16.3522 14.5244L16.3356 14.4589C16.0667 13.5732 15.9315 12.6523 15.9344 11.7267C15.9331 10.3204 16.2442 8.93143 16.8452 7.66011C17.4463 6.38879 18.3223 5.26691 19.41 4.37555L19.4267 4.36222C17.9975 3.39599 16.3107 2.88188 14.5856 2.88666H14.5456H14.5478L14.5489 2.88889ZM20 4.78111C18.596 5.8662 17.5593 7.35637 17.03 9.05L17.0133 9.11111C16.7455 9.95893 16.6106 10.8431 16.6133 11.7322C16.6133 12.6589 16.7567 13.5511 17.0222 14.39L17.0056 14.3278C17.5238 16.0392 18.5637 17.5461 19.98 18.6378L20 18.6522C21.4105 17.5739 22.4514 16.0842 22.9789 14.3889L22.9956 14.3289C23.2584 13.4885 23.3907 12.6127 23.3878 11.7322C23.3878 10.7956 23.2411 9.89444 22.9711 9.04778L22.9878 9.11C22.4667 7.40039 21.4307 5.89328 20.0211 4.79444L20.0011 4.78L20 4.78111ZM31.7178 24.5556H31.6989C31.6063 24.5556 31.5147 24.5364 31.43 24.4991C31.3452 24.4618 31.2692 24.4072 31.2067 24.3389C31.0772 24.1924 31.0058 24.0036 31.006 23.8081C31.0062 23.6126 31.078 23.424 31.2078 23.2778L31.2067 23.2789C31.2729 23.2099 31.3525 23.1549 31.4405 23.1174C31.5285 23.0799 31.6232 23.0605 31.7189 23.0605C31.8146 23.0605 31.9093 23.0799 31.9973 23.1174C32.0853 23.1549 32.1649 23.2099 32.2311 23.2789C32.3602 23.4268 32.4312 23.6166 32.431 23.813C32.4308 24.0093 32.3594 24.199 32.23 24.3467L32.2311 24.3456C32.1674 24.4121 32.0908 24.465 32.006 24.5011C31.9212 24.5372 31.8299 24.5557 31.7378 24.5556H31.7178ZM26.9789 24.5556H26.9544C26.8646 24.5556 26.7758 24.5371 26.6934 24.5014C26.611 24.4656 26.5369 24.4134 26.4756 24.3478C26.3509 24.1958 26.2829 24.0052 26.2831 23.8087C26.2833 23.6121 26.3517 23.4217 26.4767 23.27L26.4756 23.2711C26.5367 23.2052 26.6108 23.1526 26.6932 23.1166C26.7756 23.0807 26.8645 23.0621 26.9544 23.0622H26.98H26.9989C27.1933 23.0622 27.3689 23.1456 27.49 23.2789C27.6144 23.4133 27.69 23.5933 27.69 23.7911V23.8133V23.8122L27.6911 23.8422C27.6915 24.03 27.6231 24.2114 27.4989 24.3522L27.5 24.3511C27.4371 24.416 27.3618 24.4675 27.2786 24.5027C27.1954 24.5378 27.1059 24.5558 27.0156 24.5556L26.9778 24.5544H26.98L26.9789 24.5556ZM12.6033 24.5556L12.5711 24.5567C12.4799 24.5569 12.3895 24.5385 12.3057 24.5026C12.2218 24.4666 12.1461 24.414 12.0833 24.3478C11.9587 24.1958 11.8907 24.0052 11.8909 23.8087C11.8911 23.6121 11.9595 23.4217 12.0844 23.27L12.0833 23.2711C12.1504 23.2008 12.232 23.1459 12.3223 23.11C12.4126 23.0741 12.5096 23.0582 12.6067 23.0633H12.6311C12.7216 23.0632 12.8111 23.0825 12.8935 23.1199C12.9759 23.1572 13.0494 23.2118 13.1089 23.28L13.11 23.2811C13.2334 23.4317 13.3008 23.6205 13.3006 23.8152C13.3004 24.0099 13.2326 24.1985 13.1089 24.3489L13.11 24.3478C13.0485 24.4138 12.974 24.4665 12.8912 24.5024C12.8085 24.5384 12.7191 24.5568 12.6289 24.5567H12.6044H12.6056L12.6033 24.5556ZM20.7111 23.6H19.4967C19.5121 23.4497 19.5827 23.3106 19.6948 23.2093C19.8068 23.108 19.9524 23.0518 20.1034 23.0515C20.2545 23.0512 20.4003 23.1069 20.5127 23.2078C20.6251 23.3086 20.6962 23.4476 20.7122 23.5978V23.6H20.7111Z" fill="white"/>
</g>
<defs>
<clipPath id="clip0_141_420">
<rect width="40" height="26.6667" fill="white" transform="translate(0 0.666664)"/>
</clipPath>
</defs>
</svg>
