<svg width="768" height="102" viewBox="0 0 768 102" fill="none" xmlns="http://www.w3.org/2000/svg">
<path d="M-2186.9 100V1.99999H-2167.58V100H-2186.9ZM-2092.74 61.78V1.99999H-2073.42V100H-2088.12L-2130.12 40.08V100H-2149.44V1.99999H-2134.74L-2092.74 61.78ZM-2023.28 101.96C-2032.9 101.96 -2041.02 99.8133 -2047.64 95.52C-2054.27 91.2267 -2058.98 85.3 -2061.78 77.74L-2045.26 68.08C-2041.44 78.0667 -2033.92 83.06 -2022.72 83.06C-2017.5 83.06 -2013.58 82.1267 -2010.96 80.26C-2008.35 78.3933 -2007.04 75.8733 -2007.04 72.7C-2007.04 69.2467 -2008.58 66.5867 -2011.66 64.72C-2014.74 62.76 -2020.25 60.66 -2028.18 58.42C-2036.77 55.8067 -2043.54 52.7733 -2048.48 49.32C-2054.64 44.7467 -2057.72 38.0267 -2057.72 29.16C-2057.72 20.2 -2054.6 13.1533 -2048.34 8.02C-2042.09 2.7 -2034.48 0.0399935 -2025.52 0.0399935C-2017.68 0.0399935 -2010.73 1.95333 -2004.66 5.77999C-1998.6 9.60666 -1993.88 15.02 -1990.52 22.02L-2006.76 31.4C-2010.68 23 -2016.94 18.8 -2025.52 18.8C-2029.44 18.8 -2032.57 19.7333 -2034.9 21.6C-2037.24 23.3733 -2038.4 25.7067 -2038.4 28.6C-2038.4 31.68 -2037.14 34.2 -2034.62 36.16C-2031.82 38.12 -2026.88 40.1733 -2019.78 42.32L-2013.06 44.56C-2011.85 44.9333 -2009.75 45.7267 -2006.76 46.94C-2003.96 47.9667 -2001.91 48.9467 -2000.6 49.88C-1996.03 52.68 -1992.95 55.5733 -1991.36 58.56C-1988.94 62.48 -1987.72 67.1 -1987.72 72.42C-1987.72 81.4733 -1991.04 88.66 -1997.66 93.98C-2004.29 99.3 -2012.83 101.96 -2023.28 101.96ZM-1975.81 1.99999H-1939.27C-1929.93 1.99999 -1922 5.17333 -1915.47 11.52C-1909.03 17.8667 -1905.81 25.66 -1905.81 34.9C-1905.81 44.14 -1909.03 51.9333 -1915.47 58.28C-1922 64.6267 -1929.93 67.8 -1939.27 67.8H-1956.49V100H-1975.81V1.99999ZM-1956.49 49.74H-1939.27C-1935.16 49.74 -1931.75 48.34 -1929.05 45.54C-1926.34 42.6467 -1924.99 39.1 -1924.99 34.9C-1924.99 30.6067 -1926.34 27.06 -1929.05 24.26C-1931.75 21.46 -1935.16 20.06 -1939.27 20.06H-1956.49V49.74ZM-1893.23 100V1.99999H-1873.91V100H-1893.23ZM-1781.15 100H-1802.01L-1821.75 65.98H-1836.45V100H-1855.77V1.99999H-1816.57C-1807.51 1.99999 -1799.81 5.17333 -1793.47 11.52C-1787.12 17.8667 -1783.95 25.52 -1783.95 34.48C-1783.95 40.5467 -1785.67 46.1933 -1789.13 51.42C-1792.58 56.5533 -1797.15 60.4267 -1802.85 63.04L-1781.15 100ZM-1816.57 20.06H-1836.45V49.04H-1816.57C-1812.93 49.04 -1809.8 47.64 -1807.19 44.84C-1804.57 41.9467 -1803.27 38.4933 -1803.27 34.48C-1803.27 30.4667 -1804.57 27.06 -1807.19 24.26C-1809.8 21.46 -1812.93 20.06 -1816.57 20.06ZM-1685.77 100H-1706.77L-1712.65 82.36H-1751.71L-1757.59 100H-1778.45L-1744.15 1.99999H-1720.21L-1685.77 100ZM-1732.11 24.26L-1745.55 64.3H-1718.67L-1732.11 24.26ZM-1690.64 1.99999H-1618.54V20.48H-1645V100H-1664.32V20.48H-1690.64V1.99999ZM-1607.76 100V1.99999H-1588.44V100H-1607.76ZM-1487.84 87.26C-1497.73 97.06 -1509.77 101.96 -1523.96 101.96C-1538.15 101.96 -1550.19 97.06 -1560.08 87.26C-1569.88 77.2733 -1574.78 65.1867 -1574.78 51C-1574.78 36.72 -1569.88 24.68 -1560.08 14.88C-1550.19 4.98666 -1538.15 0.0399935 -1523.96 0.0399935C-1509.77 0.0399935 -1497.73 4.98666 -1487.84 14.88C-1477.95 24.68 -1473 36.72 -1473 51C-1473 65.28 -1477.95 77.3667 -1487.84 87.26ZM-1546.5 74.1C-1540.53 80.0733 -1533.01 83.06 -1523.96 83.06C-1514.91 83.06 -1507.39 80.0733 -1501.42 74.1C-1495.35 68.0333 -1492.32 60.3333 -1492.32 51C-1492.32 41.6667 -1495.35 33.9667 -1501.42 27.9C-1507.49 21.8333 -1515 18.8 -1523.96 18.8C-1532.92 18.8 -1540.43 21.8333 -1546.5 27.9C-1552.57 33.9667 -1555.6 41.6667 -1555.6 51C-1555.6 60.3333 -1552.57 68.0333 -1546.5 74.1ZM-1402.72 61.78V1.99999H-1383.4V100H-1398.1L-1440.1 40.08V100H-1459.42V1.99999H-1444.72L-1402.72 61.78ZM-1247.76 87.26C-1257.65 97.06 -1269.69 101.96 -1283.88 101.96C-1298.07 101.96 -1310.11 97.06 -1320 87.26C-1329.8 77.2733 -1334.7 65.1867 -1334.7 51C-1334.7 36.72 -1329.8 24.68 -1320 14.88C-1310.11 4.98666 -1298.07 0.0399935 -1283.88 0.0399935C-1269.69 0.0399935 -1257.65 4.98666 -1247.76 14.88C-1237.87 24.68 -1232.92 36.72 -1232.92 51C-1232.92 65.28 -1237.87 77.3667 -1247.76 87.26ZM-1306.42 74.1C-1300.45 80.0733 -1292.93 83.06 -1283.88 83.06C-1274.83 83.06 -1267.31 80.0733 -1261.34 74.1C-1255.27 68.0333 -1252.24 60.3333 -1252.24 51C-1252.24 41.6667 -1255.27 33.9667 -1261.34 27.9C-1267.41 21.8333 -1274.92 18.8 -1283.88 18.8C-1292.84 18.8 -1300.35 21.8333 -1306.42 27.9C-1312.49 33.9667 -1315.52 41.6667 -1315.52 51C-1315.52 60.3333 -1312.49 68.0333 -1306.42 74.1ZM-1160.82 1.99999V20.48H-1200.02V43.72H-1161.94V62.2H-1200.02V100H-1219.34V1.99999H-1160.82ZM-1052.52 49.18C-1043.94 54.1267 -1039.64 61.5933 -1039.64 71.58C-1039.64 79.8867 -1042.58 86.7 -1048.46 92.02C-1054.34 97.34 -1061.58 100 -1070.16 100H-1111.74V1.99999H-1073.1C-1064.8 1.99999 -1057.75 4.61333 -1051.96 9.83999C-1046.18 15.0667 -1043.28 21.6467 -1043.28 29.58C-1043.28 37.7 -1046.36 44.2333 -1052.52 49.18ZM-1073.1 20.06H-1092.42V41.62H-1073.1C-1070.12 41.62 -1067.64 40.5933 -1065.68 38.54C-1063.63 36.4867 -1062.6 33.92 -1062.6 30.84C-1062.6 27.76 -1063.58 25.1933 -1065.54 23.14C-1067.5 21.0867 -1070.02 20.06 -1073.1 20.06ZM-1092.42 81.94H-1070.16C-1066.9 81.94 -1064.19 80.8667 -1062.04 78.72C-1059.9 76.48 -1058.82 73.68 -1058.82 70.32C-1058.82 67.0533 -1059.9 64.3467 -1062.04 62.2C-1064.19 59.96 -1066.9 58.84 -1070.16 58.84H-1092.42V81.94ZM-1007.66 59.54V81.52H-966.358V100H-1026.98V1.99999H-967.058V20.48H-1007.66V41.34H-970.558V59.54H-1007.66ZM-867.236 100H-888.236L-894.116 82.36H-933.176L-939.056 100H-959.916L-925.616 1.99999H-901.676L-867.236 100ZM-913.576 24.26L-927.016 64.3H-900.136L-913.576 24.26ZM-823.915 101.96C-834.835 101.96 -843.795 98.88 -850.795 92.72C-857.795 86.56 -861.295 78.3 -861.295 67.94V1.99999H-842.115V66.4C-842.115 71.6267 -840.621 75.7333 -837.635 78.72C-834.555 81.6133 -829.981 83.06 -823.915 83.06C-817.848 83.06 -813.321 81.6133 -810.335 78.72C-807.255 75.7333 -805.715 71.6267 -805.715 66.4V1.99999H-786.395V67.94C-786.395 78.3 -789.895 86.56 -796.895 92.72C-803.895 98.88 -812.901 101.96 -823.915 101.96ZM-776.27 1.99999H-704.17V20.48H-730.63V100H-749.95V20.48H-776.27V1.99999ZM-637.664 1.99999H-615.824L-649.424 61.78V100H-668.604V61.78L-702.064 1.99999H-680.224L-658.944 42.88L-637.664 1.99999ZM-571.431 100V1.99999H-552.111V100H-571.431ZM-477.27 61.78V1.99999H-457.95V100H-472.65L-514.65 40.08V100H-533.97V1.99999H-519.27L-477.27 61.78ZM-371.311 101.96C-380.924 101.96 -389.044 99.8133 -395.671 95.52C-402.298 91.2267 -407.011 85.3 -409.811 77.74L-393.291 68.08C-389.464 78.0667 -381.951 83.06 -370.751 83.06C-365.524 83.06 -361.604 82.1267 -358.991 80.26C-356.378 78.3933 -355.071 75.8733 -355.071 72.7C-355.071 69.2467 -356.611 66.5867 -359.691 64.72C-362.771 62.76 -368.278 60.66 -376.211 58.42C-384.798 55.8067 -391.564 52.7733 -396.511 49.32C-402.671 44.7467 -405.751 38.0267 -405.751 29.16C-405.751 20.2 -402.624 13.1533 -396.371 8.02C-390.118 2.7 -382.511 0.0399935 -373.551 0.0399935C-365.711 0.0399935 -358.758 1.95333 -352.691 5.77999C-346.624 9.60666 -341.911 15.02 -338.551 22.02L-354.791 31.4C-358.711 23 -364.964 18.8 -373.551 18.8C-377.471 18.8 -380.598 19.7333 -382.931 21.6C-385.264 23.3733 -386.431 25.7067 -386.431 28.6C-386.431 31.68 -385.171 34.2 -382.651 36.16C-379.851 38.12 -374.904 40.1733 -367.811 42.32L-361.091 44.56C-359.878 44.9333 -357.778 45.7267 -354.791 46.94C-351.991 47.9667 -349.938 48.9467 -348.631 49.88C-344.058 52.68 -340.978 55.5733 -339.391 58.56C-336.964 62.48 -335.751 67.1 -335.751 72.42C-335.751 81.4733 -339.064 88.66 -345.691 93.98C-352.318 99.3 -360.858 101.96 -371.311 101.96ZM-323.834 100V1.99999H-304.514V100H-323.834ZM-210.353 1.99999H-190.473V100H-209.653V36.44L-237.233 81.94H-239.473L-267.053 36.58V100H-286.373V1.99999H-266.493L-238.353 48.34L-210.353 1.99999ZM-172.212 1.99999H-135.672C-126.339 1.99999 -118.406 5.17333 -111.872 11.52C-105.432 17.8667 -102.213 25.66 -102.213 34.9C-102.213 44.14 -105.432 51.9333 -111.872 58.28C-118.406 64.6267 -126.339 67.8 -135.672 67.8H-152.892V100H-172.212V1.99999ZM-152.892 49.74H-135.672C-131.566 49.74 -128.159 48.34 -125.452 45.54C-122.746 42.6467 -121.392 39.1 -121.392 34.9C-121.392 30.6067 -122.746 27.06 -125.452 24.26C-128.159 21.46 -131.566 20.06 -135.672 20.06H-152.892V49.74ZM-70.3144 1.99999V81.52H-32.9344V100H-89.6344V1.99999H-70.3144ZM-21.9586 100V1.99999H-2.63859V100H-21.9586ZM61.9823 101.96C47.329 101.96 35.149 97.06 25.4423 87.26C15.829 77.5533 11.0223 65.4667 11.0223 51C11.0223 36.44 15.829 24.3533 25.4423 14.74C35.149 4.93999 47.329 0.0399935 61.9823 0.0399935C70.849 0.0399935 79.0157 2.13999 86.4823 6.34C94.0424 10.4467 99.9223 16.0467 104.122 23.14L87.4624 32.8C85.0357 28.4133 81.5823 25.0067 77.1023 22.58C72.6223 20.06 67.5823 18.8 61.9823 18.8C52.4623 18.8 44.7623 21.7867 38.8823 27.76C33.0957 33.8267 30.2023 41.5733 30.2023 51C30.2023 60.3333 33.0957 68.0333 38.8823 74.1C44.7623 80.0733 52.4623 83.06 61.9823 83.06C67.5823 83.06 72.6223 81.8467 77.1023 79.42C81.6757 76.9 85.129 73.4933 87.4624 69.2L104.122 78.86C99.9223 85.9533 94.0424 91.6 86.4823 95.8C79.0157 99.9067 70.849 101.96 61.9823 101.96ZM115.991 100V1.99999H135.311V100H115.991ZM146.172 1.99999H218.272V20.48H191.812V100H172.492V20.48H146.172V1.99999ZM284.777 1.99999H306.617L273.017 61.78V100H253.837V61.78L220.377 1.99999H242.217L263.497 42.88L284.777 1.99999ZM320.754 89.92C320.754 93.1867 319.587 95.9867 317.254 98.32C314.92 100.653 312.12 101.82 308.854 101.82C305.587 101.82 302.787 100.653 300.454 98.32C298.12 95.9867 296.954 93.1867 296.954 89.92C296.954 86.6533 298.12 83.8533 300.454 81.52C302.787 79.1867 305.587 78.02 308.854 78.02C312.12 78.02 314.92 79.1867 317.254 81.52C319.587 83.8533 320.754 86.6533 320.754 89.92ZM367.035 8.99999H390.975L432.975 51L390.975 93H367.035L400.355 59.68H333.855V42.32H400.355L367.035 8.99999ZM448.354 100V1.99999H467.674V100H448.354ZM542.515 61.78V1.99999H561.835V100H547.135L505.135 40.08V100H485.815V1.99999H500.515L542.515 61.78ZM611.97 101.96C602.357 101.96 594.237 99.8133 587.61 95.52C580.983 91.2267 576.27 85.3 573.47 77.74L589.99 68.08C593.817 78.0667 601.33 83.06 612.53 83.06C617.757 83.06 621.677 82.1267 624.29 80.26C626.903 78.3933 628.21 75.8733 628.21 72.7C628.21 69.2467 626.67 66.5867 623.59 64.72C620.51 62.76 615.003 60.66 607.07 58.42C598.483 55.8067 591.717 52.7733 586.77 49.32C580.61 44.7467 577.53 38.0267 577.53 29.16C577.53 20.2 580.657 13.1533 586.91 8.02C593.163 2.7 600.77 0.0399935 609.73 0.0399935C617.57 0.0399935 624.523 1.95333 630.59 5.77999C636.657 9.60666 641.37 15.02 644.73 22.02L628.49 31.4C624.57 23 618.317 18.8 609.73 18.8C605.81 18.8 602.683 19.7333 600.35 21.6C598.017 23.3733 596.85 25.7067 596.85 28.6C596.85 31.68 598.11 34.2 600.63 36.16C603.43 38.12 608.377 40.1733 615.47 42.32L622.19 44.56C623.403 44.9333 625.503 45.7267 628.49 46.94C631.29 47.9667 633.343 48.9467 634.65 49.88C639.223 52.68 642.303 55.5733 643.89 58.56C646.317 62.48 647.53 67.1 647.53 72.42C647.53 81.4733 644.217 88.66 637.59 93.98C630.963 99.3 622.423 101.96 611.97 101.96ZM659.448 1.99999H695.988C705.321 1.99999 713.254 5.17333 719.788 11.52C726.228 17.8667 729.448 25.66 729.448 34.9C729.448 44.14 726.228 51.9333 719.788 58.28C713.254 64.6267 705.321 67.8 695.988 67.8H678.768V100H659.448V1.99999ZM678.768 49.74H695.988C700.094 49.74 703.501 48.34 706.208 45.54C708.914 42.6467 710.268 39.1 710.268 34.9C710.268 30.6067 708.914 27.06 706.208 24.26C703.501 21.46 700.094 20.06 695.988 20.06H678.768V49.74ZM742.026 100V1.99999H761.346V100H742.026ZM854.107 100H833.247L813.507 65.98H798.807V100H779.487V1.99999H818.687C827.74 1.99999 835.44 5.17333 841.787 11.52C848.133 17.8667 851.307 25.52 851.307 34.48C851.307 40.5467 849.58 46.1933 846.127 51.42C842.673 56.5533 838.1 60.4267 832.407 63.04L854.107 100ZM818.687 20.06H798.807V49.04H818.687C822.327 49.04 825.453 47.64 828.067 44.84C830.68 41.9467 831.987 38.4933 831.987 34.48C831.987 30.4667 830.68 27.06 828.067 24.26C825.453 21.46 822.327 20.06 818.687 20.06ZM949.483 100H928.483L922.603 82.36H883.543L877.663 100H856.803L891.103 1.99999H915.043L949.483 100ZM903.143 24.26L889.703 64.3H916.583L903.143 24.26ZM944.609 1.99999H1016.71V20.48H990.249V100H970.929V20.48H944.609V1.99999ZM1027.49 100V1.99999H1046.81V100H1027.49ZM1147.42 87.26C1137.52 97.06 1125.48 101.96 1111.3 101.96C1097.11 101.96 1085.07 97.06 1075.18 87.26C1065.38 77.2733 1060.48 65.1867 1060.48 51C1060.48 36.72 1065.38 24.68 1075.18 14.88C1085.07 4.98666 1097.11 0.0399935 1111.3 0.0399935C1125.48 0.0399935 1137.52 4.98666 1147.42 14.88C1157.31 24.68 1162.26 36.72 1162.26 51C1162.26 65.28 1157.31 77.3667 1147.42 87.26ZM1088.76 74.1C1094.73 80.0733 1102.24 83.06 1111.3 83.06C1120.35 83.06 1127.86 80.0733 1133.84 74.1C1139.9 68.0333 1142.94 60.3333 1142.94 51C1142.94 41.6667 1139.9 33.9667 1133.84 27.9C1127.77 21.8333 1120.26 18.8 1111.3 18.8C1102.34 18.8 1094.82 21.8333 1088.76 27.9C1082.69 33.9667 1079.66 41.6667 1079.66 51C1079.66 60.3333 1082.69 68.0333 1088.76 74.1ZM1232.53 61.78V1.99999H1251.85V100H1237.15L1195.15 40.08V100H1175.83V1.99999H1190.53L1232.53 61.78ZM1387.49 87.26C1377.6 97.06 1365.56 101.96 1351.37 101.96C1337.19 101.96 1325.15 97.06 1315.25 87.26C1305.45 77.2733 1300.55 65.1867 1300.55 51C1300.55 36.72 1305.45 24.68 1315.25 14.88C1325.15 4.98666 1337.19 0.0399935 1351.37 0.0399935C1365.56 0.0399935 1377.6 4.98666 1387.49 14.88C1397.39 24.68 1402.33 36.72 1402.33 51C1402.33 65.28 1397.39 77.3667 1387.49 87.26ZM1328.83 74.1C1334.81 80.0733 1342.32 83.06 1351.37 83.06C1360.43 83.06 1367.94 80.0733 1373.91 74.1C1379.98 68.0333 1383.01 60.3333 1383.01 51C1383.01 41.6667 1379.98 33.9667 1373.91 27.9C1367.85 21.8333 1360.33 18.8 1351.37 18.8C1342.41 18.8 1334.9 21.8333 1328.83 27.9C1322.77 33.9667 1319.73 41.6667 1319.73 51C1319.73 60.3333 1322.77 68.0333 1328.83 74.1ZM1474.43 1.99999V20.48H1435.23V43.72H1473.31V62.2H1435.23V100H1415.91V1.99999H1474.43ZM1582.73 49.18C1591.32 54.1267 1595.61 61.5933 1595.61 71.58C1595.61 79.8867 1592.67 86.7 1586.79 92.02C1580.91 97.34 1573.68 100 1565.09 100H1523.51V1.99999H1562.15C1570.46 1.99999 1577.5 4.61333 1583.29 9.83999C1589.08 15.0667 1591.97 21.6467 1591.97 29.58C1591.97 37.7 1588.89 44.2333 1582.73 49.18ZM1562.15 20.06H1542.83V41.62H1562.15C1565.14 41.62 1567.61 40.5933 1569.57 38.54C1571.62 36.4867 1572.65 33.92 1572.65 30.84C1572.65 27.76 1571.67 25.1933 1569.71 23.14C1567.75 21.0867 1565.23 20.06 1562.15 20.06ZM1542.83 81.94H1565.09C1568.36 81.94 1571.06 80.8667 1573.21 78.72C1575.36 76.48 1576.43 73.68 1576.43 70.32C1576.43 67.0533 1575.36 64.3467 1573.21 62.2C1571.06 59.96 1568.36 58.84 1565.09 58.84H1542.83V81.94ZM1627.6 59.54V81.52H1668.9V100H1608.28V1.99999H1668.2V20.48H1627.6V41.34H1664.7V59.54H1627.6ZM1768.02 100H1747.02L1741.14 82.36H1702.08L1696.2 100H1675.34L1709.64 1.99999H1733.58L1768.02 100ZM1721.68 24.26L1708.24 64.3H1735.12L1721.68 24.26ZM1811.34 101.96C1800.42 101.96 1791.46 98.88 1784.46 92.72C1777.46 86.56 1773.96 78.3 1773.96 67.94V1.99999H1793.14V66.4C1793.14 71.6267 1794.63 75.7333 1797.62 78.72C1800.7 81.6133 1805.27 83.06 1811.34 83.06C1817.41 83.06 1821.93 81.6133 1824.92 78.72C1828 75.7333 1829.54 71.6267 1829.54 66.4V1.99999H1848.86V67.94C1848.86 78.3 1845.36 86.56 1838.36 92.72C1831.36 98.88 1822.35 101.96 1811.34 101.96ZM1858.98 1.99999H1931.08V20.48H1904.62V100H1885.3V20.48H1858.98V1.99999ZM1997.59 1.99999H2019.43L1985.83 61.78V100H1966.65V61.78L1933.19 1.99999H1955.03L1976.31 42.88L1997.59 1.99999ZM2063.82 100V1.99999H2083.14V100H2063.82ZM2157.98 61.78V1.99999H2177.3V100H2162.6L2120.6 40.08V100H2101.28V1.99999H2115.98L2157.98 61.78ZM2263.94 101.96C2254.33 101.96 2246.21 99.8133 2239.58 95.52C2232.96 91.2267 2228.24 85.3 2225.44 77.74L2241.96 68.08C2245.79 78.0667 2253.3 83.06 2264.5 83.06C2269.73 83.06 2273.65 82.1267 2276.26 80.26C2278.88 78.3933 2280.18 75.8733 2280.18 72.7C2280.18 69.2467 2278.64 66.5867 2275.56 64.72C2272.48 62.76 2266.98 60.66 2259.04 58.42C2250.46 55.8067 2243.69 52.7733 2238.74 49.32C2232.58 44.7467 2229.5 38.0267 2229.5 29.16C2229.5 20.2 2232.63 13.1533 2238.88 8.02C2245.14 2.7 2252.74 0.0399935 2261.7 0.0399935C2269.54 0.0399935 2276.5 1.95333 2282.56 5.77999C2288.63 9.60666 2293.34 15.02 2296.7 22.02L2280.46 31.4C2276.54 23 2270.29 18.8 2261.7 18.8C2257.78 18.8 2254.66 19.7333 2252.32 21.6C2249.99 23.3733 2248.82 25.7067 2248.82 28.6C2248.82 31.68 2250.08 34.2 2252.6 36.16C2255.4 38.12 2260.35 40.1733 2267.44 42.32L2274.16 44.56C2275.38 44.9333 2277.48 45.7267 2280.46 46.94C2283.26 47.9667 2285.32 48.9467 2286.62 49.88C2291.2 52.68 2294.28 55.5733 2295.86 58.56C2298.29 62.48 2299.5 67.1 2299.5 72.42C2299.5 81.4733 2296.19 88.66 2289.56 93.98C2282.94 99.3 2274.4 101.96 2263.94 101.96ZM2311.42 100V1.99999H2330.74V100H2311.42ZM2424.9 1.99999H2444.78V100H2425.6V36.44L2398.02 81.94H2395.78L2368.2 36.58V100H2348.88V1.99999H2368.76L2396.9 48.34L2424.9 1.99999ZM2463.04 1.99999H2499.58C2508.91 1.99999 2516.85 5.17333 2523.38 11.52C2529.82 17.8667 2533.04 25.66 2533.04 34.9C2533.04 44.14 2529.82 51.9333 2523.38 58.28C2516.85 64.6267 2508.91 67.8 2499.58 67.8H2482.36V100H2463.04V1.99999ZM2482.36 49.74H2499.58C2503.69 49.74 2507.09 48.34 2509.8 45.54C2512.51 42.6467 2513.86 39.1 2513.86 34.9C2513.86 30.6067 2512.51 27.06 2509.8 24.26C2507.09 21.46 2503.69 20.06 2499.58 20.06H2482.36V49.74ZM2564.94 1.99999V81.52H2602.32V100H2545.62V1.99999H2564.94ZM2613.3 100V1.99999H2632.62V100H2613.3ZM2697.24 101.96C2682.58 101.96 2670.4 97.06 2660.7 87.26C2651.08 77.5533 2646.28 65.4667 2646.28 51C2646.28 36.44 2651.08 24.3533 2660.7 14.74C2670.4 4.93999 2682.58 0.0399935 2697.24 0.0399935C2706.1 0.0399935 2714.27 2.13999 2721.74 6.34C2729.3 10.4467 2735.18 16.0467 2739.38 23.14L2722.72 32.8C2720.29 28.4133 2716.84 25.0067 2712.36 22.58C2707.88 20.06 2702.84 18.8 2697.24 18.8C2687.72 18.8 2680.02 21.7867 2674.14 27.76C2668.35 33.8267 2665.46 41.5733 2665.46 51C2665.46 60.3333 2668.35 68.0333 2674.14 74.1C2680.02 80.0733 2687.72 83.06 2697.24 83.06C2702.84 83.06 2707.88 81.8467 2712.36 79.42C2716.93 76.9 2720.38 73.4933 2722.72 69.2L2739.38 78.86C2735.18 85.9533 2729.3 91.6 2721.74 95.8C2714.27 99.9067 2706.1 101.96 2697.24 101.96ZM2751.24 100V1.99999H2770.56V100H2751.24ZM2781.43 1.99999H2853.53V20.48H2827.07V100H2807.75V20.48H2781.43V1.99999ZM2920.03 1.99999H2941.87L2908.27 61.78V100H2889.09V61.78L2855.63 1.99999H2877.47L2898.75 42.88L2920.03 1.99999ZM2956.01 89.92C2956.01 93.1867 2954.84 95.9867 2952.51 98.32C2950.17 100.653 2947.37 101.82 2944.11 101.82C2940.84 101.82 2938.04 100.653 2935.71 98.32C2933.37 95.9867 2932.21 93.1867 2932.21 89.92C2932.21 86.6533 2933.37 83.8533 2935.71 81.52C2938.04 79.1867 2940.84 78.02 2944.11 78.02C2947.37 78.02 2950.17 79.1867 2952.51 81.52C2954.84 83.8533 2956.01 86.6533 2956.01 89.92Z" fill="white"/>
</svg>
