<svg width="90" height="90" viewBox="0 0 90 90" fill="none" xmlns="http://www.w3.org/2000/svg">
<g clip-path="url(#clip0_64_2)">
<path d="M36.8009 65.1537C36.8009 68.0532 38.1303 70.1082 42.9254 72.4632C42.1902 71.1972 41.1926 69.0111 41.2025 66.8628C41.2025 64.4322 42.3233 61.2703 44.9484 61.2862C47.4384 61.3002 48.8016 64.1163 48.7757 66.8986C48.732 71.6166 42.6671 73.5006 42.7128 80.5856C42.7247 82.4954 43.3904 84.3139 44.9345 87.0843C42.5976 76.1975 53.8192 75.1223 53.3403 64.9867C55.403 67.1231 57.7936 67.6836 62.9325 65.9407C61.5176 65.5631 59.2681 64.7164 57.7658 63.1882C56.0588 61.4572 54.6141 58.4344 56.486 56.5921C58.2606 54.8452 61.2136 55.8786 63.159 57.868C66.4558 61.2465 63.4869 66.8588 68.5245 71.8451C69.8817 73.1906 71.6344 74.0114 74.6848 74.8838C65.345 68.8184 72.5465 60.1435 65.0449 53.2871C68.0098 53.3288 70.0924 52.0271 72.479 47.162C71.2131 47.8993 69.0272 48.895 66.8791 48.887C64.4487 48.8751 61.2871 47.7662 61.303 45.1389C61.3169 42.6487 64.1328 41.2854 66.9148 41.3112C71.6324 41.3549 73.5163 47.4204 80.6006 47.3747C82.5103 47.3627 84.3286 46.699 87.0988 45.1528C76.2407 47.484 75.1498 36.3249 65.0707 36.7442L65.0807 36.7323C67.2467 34.6277 67.8091 32.2329 65.9848 27.0618C65.6232 28.4827 64.8064 30.7424 63.2962 32.2687C61.5872 33.9977 58.5825 35.4803 56.7166 33.63C54.948 31.8791 55.9435 28.912 57.9089 26.9425C61.2434 23.6018 66.895 26.5033 71.8192 21.4097C73.1467 20.0364 73.9455 18.2736 74.7802 15.2111C68.8186 24.6392 60.0392 17.5105 53.2728 25.1579V25.0863C53.3483 22.0635 52.0804 19.9629 47.1522 17.5462C47.8875 18.8122 48.885 20.9983 48.8751 23.1466C48.8632 25.5772 47.7543 28.7391 45.1273 28.7232C42.6393 28.7093 41.2741 25.8932 41.2999 23.1109C41.3337 18.3829 47.3986 16.4949 47.3509 9.41392C47.339 7.50406 46.6753 5.68561 45.1292 2.91522C47.4662 13.7981 36.2505 14.8692 36.7254 25.0148C34.6567 22.8664 32.2681 22.298 27.1173 24.0449C28.5322 24.4225 30.7817 25.2672 32.284 26.7974C33.991 28.5264 35.4357 31.5512 33.5638 33.3935C31.7892 35.1404 28.8362 34.107 26.8908 32.1176C23.592 28.7391 26.5629 23.1268 21.5254 18.1385C20.1701 16.795 18.4154 15.9742 15.3651 15.1018C24.7049 21.1613 17.5152 29.8282 24.989 36.6826C22.0082 36.6309 19.9197 37.9247 17.5231 42.8077C18.789 42.0704 20.9749 41.0727 23.1231 41.0826C25.5534 41.0946 28.715 42.2035 28.6991 44.8308C28.6852 47.319 25.8694 48.6843 23.0873 48.6585C18.3816 48.6148 16.4938 42.5493 9.41341 42.595C7.50371 42.607 5.68543 43.2707 2.91528 44.8169C13.8945 42.4599 14.8861 53.8972 25.2831 53.2096H25.3706C25.2851 53.2851 25.1997 53.3646 25.1162 53.4441C22.9502 55.5507 22.3898 57.9455 24.214 63.1146C24.5737 61.6956 25.3924 59.436 26.9027 57.9097C28.6117 56.1807 31.6163 54.6981 33.4823 56.5484C35.2489 58.2992 34.2533 61.2664 32.29 63.2359C28.9555 66.5746 23.3059 63.6751 18.3796 68.7687C17.0522 70.14 16.2553 71.9048 15.4187 74.9653C21.3405 65.5968 30.0524 72.5805 36.8029 65.1596L36.8009 65.1537Z" stroke="white" stroke-width="2" stroke-miterlimit="22.93"/>
</g>
<defs>
<clipPath id="clip0_64_2">
<rect width="90" height="90" fill="white"/>
</clipPath>
</defs>
</svg>
